<?xml version="1.0" encoding="UTF-8" standalone="no"?>
<!DOCTYPE svg PUBLIC "-//W3C//DTD SVG 1.1//EN"
 "http://www.w3.org/Graphics/SVG/1.1/DTD/svg11.dtd">
<!-- Generated by graphviz version 2.40.1 (0)
 -->
<!-- Title: %3 Pages: 1 -->
<svg width="880pt" height="231pt"
 viewBox="0.00 0.00 880.20 231.00" xmlns="http://www.w3.org/2000/svg" xmlns:xlink="http://www.w3.org/1999/xlink">
<g id="graph0" class="graph" transform="scale(1 1) rotate(0) translate(4 227)">
<title>%3</title>
<polygon fill="#3f3f3f" stroke="transparent" points="-4,4 -4,-227 876.1977,-227 876.1977,4 -4,4"/>
<text text-anchor="middle" x="436.0989" y="-9.2" font-family="Times,serif" font-size="16.00" fill="#ffffff">Network Map</text>
<!-- SW1 -->
<g id="node1" class="node">
<title>SW1</title>
<polygon fill="#006699" stroke="#006699" points="287.1977,-223 197.1977,-223 197.1977,-150 287.1977,-150 287.1977,-223"/>
<text text-anchor="middle" x="242.1977" y="-182.8" font-family="Helvetica,sans-Serif" font-size="14.00" fill="#ffffff">SW1</text>
</g>
<!-- R5 -->
<g id="node2" class="node">
<title>R5</title>
<polygon fill="#006699" stroke="#006699" points="587.6977,-223 510.6977,-223 510.6977,-150 587.6977,-150 587.6977,-223"/>
<text text-anchor="middle" x="549.1977" y="-182.8" font-family="Helvetica,sans-Serif" font-size="14.00" fill="#ffffff">R5</text>
</g>
<!-- R4 -->
<g id="node3" class="node">
<title>R4</title>
<polygon fill="#006699" stroke="#006699" points="402.6977,-99 325.6977,-99 325.6977,-26 402.6977,-26 402.6977,-99"/>
<text text-anchor="middle" x="364.1977" y="-58.8" font-family="Helvetica,sans-Serif" font-size="14.00" fill="#ffffff">R4</text>
</g>
<!-- R4&#45;&#45;SW1 -->
<g id="edge6" class="edge">
<title>R4&#45;&#45;SW1</title>
<path fill="none" stroke="#00ff00" stroke-dasharray="5,2" d="M325.5473,-96.5102C318.3247,-103.1719 310.9338,-110.2032 304.1977,-117 293.9539,-127.3362 283.2497,-138.9947 273.6751,-149.7682"/>
<text text-anchor="middle" x="354.1977" y="-120.8" font-family="Courier,monospace" font-size="14.00" fill="#ffffff"> &#160;&#160;&#160;&#160;&#160;&#160;&#160;&#160;&#160;&#160;&#160;</text>
<text text-anchor="middle" x="244.6751" y="-138.5682" font-family="Courier,monospace" font-size="14.00" fill="#ffffff">Eth 0/4</text>
<text text-anchor="middle" x="296.5473" y="-85.3102" font-family="Courier,monospace" font-size="14.00" fill="#ffffff">Eth 0/0</text>
</g>
<!-- R4&#45;&#45;R5 -->
<g id="edge7" class="edge">
<title>R4&#45;&#45;R5</title>
<path fill="none" stroke="#00ff00" stroke-dasharray="5,2" d="M392.4307,-99.2564C402.516,-110.7563 414.5399,-122.8238 427.1977,-132 452.647,-150.4492 485.3348,-164.6367 510.4686,-173.9052"/>
<text text-anchor="middle" x="477.1977" y="-120.8" font-family="Courier,monospace" font-size="14.00" fill="#ffffff"> &#160;&#160;&#160;&#160;&#160;&#160;&#160;&#160;&#160;&#160;&#160;</text>
<text text-anchor="middle" x="481.4686" y="-162.7052" font-family="Courier,monospace" font-size="14.00" fill="#ffffff">Eth 0/1</text>
<text text-anchor="middle" x="363.4307" y="-103.0564" font-family="Courier,monospace" font-size="14.00" fill="#ffffff">Eth 0/1</text>
</g>
<!-- R2 -->
<g id="node4" class="node">
<title>R2</title>
<polygon fill="#006699" stroke="#006699" points="710.6977,-99 633.6977,-99 633.6977,-26 710.6977,-26 710.6977,-99"/>
<text text-anchor="middle" x="672.1977" y="-58.8" font-family="Helvetica,sans-Serif" font-size="14.00" fill="#ffffff">R2</text>
</g>
<!-- R2&#45;&#45;SW1 -->
<g id="edge2" class="edge">
<title>R2&#45;&#45;SW1</title>
<path fill="none" stroke="#00ff00" stroke-dasharray="5,2" d="M633.4415,-76.2452C607.8493,-86.0404 574.0281,-100.3832 546.1977,-117 536.9602,-122.5155 536.9833,-127.5285 527.1977,-132 447.8167,-168.2731 345.3488,-180.4111 287.3991,-184.4681"/>
<text text-anchor="middle" x="596.1977" y="-120.8" font-family="Courier,monospace" font-size="14.00" fill="#ffffff"> &#160;&#160;&#160;&#160;&#160;&#160;&#160;&#160;&#160;&#160;&#160;</text>
<text text-anchor="middle" x="316.3991" y="-173.2681" font-family="Courier,monospace" font-size="14.00" fill="#ffffff">Eth 0/2</text>
<text text-anchor="middle" x="604.4415" y="-65.0452" font-family="Courier,monospace" font-size="14.00" fill="#ffffff">Eth 0/0</text>
</g>
<!-- R2&#45;&#45;R5 -->
<g id="edge3" class="edge">
<title>R2&#45;&#45;R5</title>
<path fill="none" stroke="#00ff00" stroke-dasharray="5,2" d="M666.2356,-99.0402C662.9736,-110.5257 657.9434,-122.6393 650.1977,-132 634.0658,-151.4954 609.0828,-165.0607 588.0008,-173.7816"/>
<text text-anchor="middle" x="708.1977" y="-120.8" font-family="Courier,monospace" font-size="14.00" fill="#ffffff"> &#160;&#160;&#160;&#160;&#160;&#160;&#160;&#160;&#160;&#160;&#160;</text>
<text text-anchor="middle" x="617.0008" y="-162.5816" font-family="Courier,monospace" font-size="14.00" fill="#ffffff">Eth 0/0</text>
<text text-anchor="middle" x="637.2356" y="-102.8402" font-family="Courier,monospace" font-size="14.00" fill="#ffffff">Eth 0/1</text>
</g>
<!-- R6 -->
<g id="node7" class="node">
<title>R6</title>
<polygon fill="#006699" stroke="#006699" points="833.6977,-223 756.6977,-223 756.6977,-150 833.6977,-150 833.6977,-223"/>
<text text-anchor="middle" x="795.1977" y="-182.8" font-family="Helvetica,sans-Serif" font-size="14.00" fill="#ffffff">R6</text>
</g>
<!-- R2&#45;&#45;R6 -->
<g id="edge4" class="edge">
<title>R2&#45;&#45;R6</title>
<path fill="none" stroke="#00ff00" stroke-dasharray="5,2" d="M710.7614,-79.4651C728.1808,-88.6144 747.9916,-101.2784 762.1977,-117 770.7051,-126.4149 777.4428,-138.4131 782.5528,-149.7807"/>
<text text-anchor="middle" x="822.1977" y="-120.8" font-family="Courier,monospace" font-size="14.00" fill="#ffffff"> &#160;&#160;&#160;&#160;&#160;&#160;&#160;&#160;&#160;&#160;&#160;</text>
<text text-anchor="middle" x="753.5528" y="-138.5807" font-family="Courier,monospace" font-size="14.00" fill="#ffffff">Eth 0/1</text>
<text text-anchor="middle" x="739.7614" y="-68.2651" font-family="Courier,monospace" font-size="14.00" fill="#ffffff">Eth 0/2</text>
</g>
<!-- R1 -->
<g id="node5" class="node">
<title>R1</title>
<polygon fill="#006699" stroke="#006699" points="218.6977,-99 141.6977,-99 141.6977,-26 218.6977,-26 218.6977,-99"/>
<text text-anchor="middle" x="180.1977" y="-58.8" font-family="Helvetica,sans-Serif" font-size="14.00" fill="#ffffff">R1</text>
</g>
<!-- R1&#45;&#45;SW1 -->
<g id="edge1" class="edge">
<title>R1&#45;&#45;SW1</title>
<path fill="none" stroke="#00ff00" stroke-dasharray="5,2" d="M175.2299,-99.088C175.1647,-110.0829 176.5898,-121.8996 181.1977,-132 184.9701,-140.269 190.6688,-147.8098 197.0948,-154.4696"/>
<text text-anchor="middle" x="231.1977" y="-120.8" font-family="Courier,monospace" font-size="14.00" fill="#ffffff"> &#160;&#160;&#160;&#160;&#160;&#160;&#160;&#160;&#160;&#160;&#160;</text>
<text text-anchor="middle" x="168.0948" y="-143.2696" font-family="Courier,monospace" font-size="14.00" fill="#ffffff">Eth 0/1</text>
<text text-anchor="middle" x="146.2299" y="-102.888" font-family="Courier,monospace" font-size="14.00" fill="#ffffff">Eth 0/0</text>
</g>
<!-- R3 -->
<g id="node6" class="node">
<title>R3</title>
<polygon fill="#006699" stroke="#006699" points="95.6977,-99 18.6977,-99 18.6977,-26 95.6977,-26 95.6977,-99"/>
<text text-anchor="middle" x="57.1977" y="-58.8" font-family="Helvetica,sans-Serif" font-size="14.00" fill="#ffffff">R3</text>
</g>
<!-- R3&#45;&#45;SW1 -->
<g id="edge5" class="edge">
<title>R3&#45;&#45;SW1</title>
<path fill="none" stroke="#00ff00" stroke-dasharray="5,2" d="M58,-99.0026C59.9689,-110.7536 64.0716,-123.0388 72.1977,-132 89.0617,-150.5971 152.659,-167.4819 197.0895,-177.3742"/>
<text text-anchor="middle" x="122.1977" y="-120.8" font-family="Courier,monospace" font-size="14.00" fill="#ffffff"> &#160;&#160;&#160;&#160;&#160;&#160;&#160;&#160;&#160;&#160;&#160;</text>
<text text-anchor="middle" x="168.0895" y="-166.1742" font-family="Courier,monospace" font-size="14.00" fill="#ffffff">Eth 0/3</text>
<text text-anchor="middle" x="29" y="-102.8026" font-family="Courier,monospace" font-size="14.00" fill="#ffffff">Eth 0/0</text>
</g>
</g>
</svg>
